# xmcd CD database file
#
# Track frame offsets:
#	150
#	19272
#	39847
#	59251
#	81384
#	101074
#	121660
#	138264
#	155182
#	177946
#	193897
#	218720
#	233741
#	254037
#	271765
#	293471
#	317529
#	336903
#
# Disc length: 4764 seconds
#
# Revision: 7
# Processed by: cddbd v1.5PL3 Copyright (c) Steve Scherf et al.
# Submitted via: CDex 1.51
#
DISCID=02129a12
DTITLE=R.Kelly - The R. In R&B Greatest Hits Collection - Vol. 1
DYEAR=2003
DGENRE=R&B
TTITLE0=Bump N' Grind
TTITLE1=Your Body's Callin'
TTITLE2=Sex Me[Part1]
TTITLE3=Gotham City
TTITLE4=Down Low[Nobody Has To Know] [feat.Ronald and Ernie Isley]
TTITLE5=When A Woman's Fed Up
TTITLE6=Thoia Thoing
TTITLE7=Touched A Dream
TTITLE8=I Wish
TTITLE9=Ghetto Religion [feat.Wyclef Jean]
TTITLE10=I Can't Sleep Baby[If I]
TTITLE11=She's Got That Vibe
TTITLE12=If I Could Turn Back The Hands Of Time
TTITLE13=The World's Greatest
TTITLE14=I'm Your Angel [Duet with Celine Dion]
TTITLE15=I Believe I Can Fly
TTITLE16=Home Alone [feat.Keith Murray]
TTITLE17=The Storm Is Over Now
EXTD=YEAR: 2003
EXTT0=
EXTT1=
EXTT2=
EXTT3=
EXTT4=
EXTT5=
EXTT6=
EXTT7=
EXTT8=
EXTT9=
EXTT10=
EXTT11=
EXTT12=
EXTT13=
EXTT14=
EXTT15=
EXTT16=
EXTT17=
PLAYORDER=
